<?xml version="1.0" encoding="utf-8"?>
<!-- Generator: Adobe Illustrator 24.0.0, SVG Export Plug-In . SVG Version: 6.00 Build 0)  -->
<svg version="1.1" id="Livello_1" xmlns:v="https://vecta.io/nano"
	 xmlns="http://www.w3.org/2000/svg" xmlns:xlink="http://www.w3.org/1999/xlink" x="0px" y="0px" viewBox="0 0 186 179"
	 style="enable-background:new 0 0 186 179;" xml:space="preserve">
<style type="text/css">
	.st0{fill:#606063;}
	.st1{fill:url(#SVGID_1_);}
	.st2{fill-rule:evenodd;clip-rule:evenodd;fill:#606063;}
	.st3{fill-rule:evenodd;clip-rule:evenodd;fill:#979797;}
	.st4{fill-rule:evenodd;clip-rule:evenodd;fill:url(#SVGID_2_);}
	.st5{fill-rule:evenodd;clip-rule:evenodd;fill:url(#SVGID_3_);}
	.st6{fill:#F0B90B;}
	.st7{fill:#FFFDFA;}
	.st8{opacity:0.1;fill:none;stroke:#191326;stroke-width:3;enable-background:new    ;}
	.st9{display:none;fill:#FFFDFA;}
	.st10{display:none;opacity:0.2;fill:none;stroke:#191326;stroke-width:2.837;enable-background:new    ;}
	.st11{clip-path:url(#SVGID_5_);}
	.st12{fill:#FFFFFF;}
</style>
<g>
	<path class="st0" d="M67,119c-3.2,12.1,15,27.4,40.6,34.1s48.9,2.3,52.1-9.9s-15-27.4-40.6-34.1S70.2,106.9,67,119z"/>
	<path class="st0" d="M155.9,149.3l15.4-16.3L62,104.4l5.7,21.8L155.9,149.3z"/>
	<path class="st0" d="M68.9,108.3L27,97.3c-1.8-0.5-3.7,0.7-4.1,2.5l-0.5,2.1c-0.9,4.2,1.6,8.5,5.7,9.7l41.8,12.2
		C70.1,123.9,68.9,108.3,68.9,108.3z"/>
</g>
<linearGradient id="SVGID_1_" gradientUnits="userSpaceOnUse" x1="124.7873" y1="419.7967" x2="111.4127" y2="470.9033" gradientTransform="matrix(1 0 0 1 0 -332)">
	<stop  offset="0" style="stop-color:#404042"/>
	<stop  offset="1" style="stop-color:#48484B"/>
</linearGradient>
<path class="st1" d="M62.2,98.7c-3.7,14.1,18.3,32.1,49.2,40.2s58.9,3.2,62.6-10.9s-18.3-32.1-49.2-40.2S65.9,84.6,62.2,98.7
	L62.2,98.7z"/>
<g>
	<path class="st2" d="M146.7,123.3c7.1,5.2,11.2,10.9,11.9,15.9l3-0.4c-0.8-6.2-5.7-12.5-13.1-17.9c-7.4-5.4-17.4-10.1-28.9-13.2
		S97,103.9,87.9,105c-9,1.1-16.4,4.2-20.2,9.2l2.4,1.8c3-4.1,9.4-6.9,18.1-8s19.4-0.3,30.5,2.6S139.6,118.1,146.7,123.3L146.7,123.3
		z"/>
	<path class="st3" d="M75.7,118.7c-8.7-7.1-12-14-10.6-19.3s7.6-9.7,18.7-11.6c10.8-1.9,25.1-1.2,40.2,2.8s27.9,10.3,36.4,17.2
		c8.7,7.1,12,14,10.6,19.3c-1.4,5.2-7.6,9.7-18.7,11.6c-10.8,1.9-25.1,1.2-40.2-2.8S84.2,125.7,75.7,118.7L75.7,118.7z M111.4,138.9
		c-30.9-8.1-52.9-26.1-49.2-40.2s31.7-19,62.6-10.9s52.9,26.1,49.2,40.2S142.2,147,111.4,138.9L111.4,138.9z"/>
	
		<linearGradient id="SVGID_2_" gradientUnits="userSpaceOnUse" x1="65.5972" y1="437.1037" x2="60.765" y2="455.1375" gradientTransform="matrix(1 0 0 1 0 -332)">
		<stop  offset="0" style="stop-color:#404042"/>
		<stop  offset="1" style="stop-color:#48484B"/>
	</linearGradient>
	<path class="st4" d="M64.2,124l-4.9-19.1l2.9-0.8l4.9,19.1L64.2,124z"/>
	
		<linearGradient id="SVGID_3_" gradientUnits="userSpaceOnUse" x1="92.4962" y1="412.2051" x2="108.1024" y2="496.7169" gradientTransform="matrix(1 0 0 1 0 -332)">
		<stop  offset="0" style="stop-color:#404042"/>
		<stop  offset="1" style="stop-color:#48484B"/>
	</linearGradient>
	<path class="st5" d="M62.5,106.2l-0.1-0.4l-0.2-0.8l-0.1-0.5l0,0l0,0l-0.1-0.8v-0.2c-0.1-0.7-0.1-1.3-0.1-2c0-0.9,0.2-1.8,0.4-2.7
		c3.7-14.1,31.7-19,62.6-10.9s52.9,26.1,49.2,40.2c-0.2,0.9-0.6,1.7-1,2.5c-0.5,0.9-1,1.7-1.6,2.5l0,0l0,0l-0.6,0.7L158,147.5
		c-6.8,9-27.6,11.8-50.1,5.9c-22.3-5.8-39-18.2-40.8-29.3c-0.1-0.6-0.5-1.1-1-1.2l-36.7-10.7c-4.1-1.2-6.7-5.4-5.8-9.6l0.5-2.2
		c0.4-1.8,2.2-3,4.1-2.5l34.2,8.9c0.1,0,0.3,0,0.3-0.2C62.5,106.3,62.5,106.2,62.5,106.2L62.5,106.2z M58.8,102.6
		c-0.1-1.5,0.1-3.1,0.5-4.6c2.3-8.9,11.9-14,23.5-16c11.8-2.1,27-1.2,42.7,2.9s29.4,10.8,38.7,18.4c9.1,7.4,15,16.6,12.6,25.4
		c-0.6,2.1-1.6,4.1-2.9,5.8c-0.1,0.2-0.3,0.4-0.4,0.6l-13.4,14.2c-4.2,5.4-12,8.5-21.1,9.6c-9.3,1.1-20.5,0.3-32.1-2.8
		c-11.5-3-21.5-7.7-29.1-13.1c-7.1-5.1-12.3-11.3-13.7-17.7l-35.8-10.5c-5.6-1.7-9.1-7.4-7.9-13.1l0.5-2.2c0.7-3.5,4.3-5.7,7.8-4.8
		L58.8,102.6L58.8,102.6z"/>
</g>
<circle class="st6" cx="76" cy="29" r="29"/>
<path class="st7" d="M65.2,29l-4.4,4.5L56.3,29l4.5-4.5L65.2,29z M76,18.2l7.6,7.6l4.5-4.5l-7.6-7.6L76,9.3L63.9,21.4l4.5,4.5
	L76,18.2z M91.3,24.5L86.8,29l4.5,4.5l4.4-4.5L91.3,24.5z M76,39.8l-7.6-7.6L64,36.7l12,12l12.1-12.1l-4.5-4.4L76,39.8z M76,33.5
	l4.5-4.5L76,24.5L71.5,29L76,33.5z"/>
<circle class="st8" cx="76" cy="29" r="27.5"/>
<path class="st9" d="M124.8,46.4c1.2-0.7,2.8,0.8,2.1,2.1c-0.4,1-1.8,1.3-2.6,0.5C123.5,48.3,123.8,46.8,124.8,46.4z M111.4,47.8
	c0.8-0.3,1.7,0.4,1.6,1.2c0.1,0.9-1,1.6-1.8,1.1C110.2,49.8,110.4,48.1,111.4,47.8L111.4,47.8z M138.8,50.2c-1.2-0.1-1.4-2-0.2-2.4
	c0.9-0.4,1.7,0.4,1.8,1.2C140.2,49.7,139.6,50.4,138.8,50.2L138.8,50.2z M114.4,53.5c1.3-0.8,3.1,0.4,2.9,1.9
	c-0.1,1.5-2,2.4-3.2,1.3C113.1,55.9,113.3,54.1,114.4,53.5z M133.7,54.4c0.6-1.5,2.8-1.5,3.5-0.1c0.6,1.1-0.1,2.5-1.3,2.8
	C134.4,57.4,133,55.8,133.7,54.4L133.7,54.4z M123.2,57c0-1.2,1.1-2.2,2.3-2.3c0.8,0.2,1.6,0.5,2,1.3c0.6,1.1,0.1,2.6-1.1,3.1
	c-0.5,0.3-1.1,0.2-1.7,0.1C123.8,58.9,123.1,58.1,123.2,57z M103.3,58.9c1.2-0.7,2.7,0.6,2.3,1.8c-0.2,1.1-1.7,1.5-2.5,0.8
	C102.1,60.9,102.3,59.3,103.3,58.9z M146,58.9c1-0.8,2.6,0.1,2.5,1.3c0.1,1.1-1.3,2-2.3,1.4C145.1,61.1,145,59.5,146,58.9z
	 M128.8,61.1c1.6-0.6,3.5,0.1,4.4,1.6c1.2,1.8,0.6,4.4-1.3,5.5c-2,1.2-4.8,0.2-5.5-2C125.6,64.2,126.8,61.7,128.8,61.1L128.8,61.1z
	 M119.3,61.3c1.8-0.8,4.2-0.1,5.1,1.7c1,1.8,0.2,4.3-1.6,5.2c-1.8,1-4.4,0.3-5.3-1.7C116.5,64.6,117.4,62.2,119.3,61.3z M109.8,64.5
	c0.1-1.2,1.2-1.9,2.3-2c1.2,0.1,2.1,1.1,2.3,2.3c-0.1,1.2-1,2.4-2.3,2.3C110.8,67.3,109.5,65.9,109.8,64.5z M137.8,62.8
	c1.4-0.8,3.4,0.4,3.3,2c0.1,1.7-2.1,2.9-3.5,1.9C136.2,65.9,136.3,63.5,137.8,62.8z M115.4,68.9c1.7-0.4,3.6,0.3,4.4,1.9
	c0.9,1.5,0.5,3.7-0.8,4.8c-1.8,1.6-5.1,1-6-1.3C111.9,72.2,113.2,69.4,115.4,68.9z M133.4,68.9c1.6-0.5,3.5,0.2,4.4,1.6
	c1.2,1.7,0.6,4.2-1.1,5.3c-1.8,1.3-4.6,0.6-5.5-1.4C129.9,72.4,131.1,69.5,133.4,68.9L133.4,68.9z M104.8,70.8c1.4-0.5,3,1,2.4,2.5
	c-0.4,1.3-2.2,1.8-3.1,0.8C103,73.2,103.4,71.2,104.8,70.8z M143.6,72.9c0-1.2,0.8-2.2,2-2.3c1,0.2,1.9,0.9,1.9,2
	c0.1,1.4-1.6,2.4-2.8,1.7C144.1,74,143.9,73.4,143.6,72.9z M97.7,71.5c0.9-0.4,1.9,0.4,1.7,1.3c0,1.1-1.6,1.5-2.2,0.6
	C96.7,72.8,97,71.8,97.7,71.5L97.7,71.5z M152.1,71.5c0.6-0.4,1.6-0.1,1.8,0.6c0.4,0.8-0.3,1.8-1.2,1.7
	C151.5,73.9,151.1,72,152.1,71.5z M120.1,76.7c2.3-0.6,4.7,1.3,4.7,3.6c0.1,2.4-2.3,4.4-4.6,3.9c-1.8-0.3-3.2-2-3.2-3.8
	C117.1,78.7,118.4,77,120.1,76.7L120.1,76.7z M129.1,76.7c2.3-0.6,4.8,1.3,4.8,3.7c0.1,2.3-2.2,4.3-4.5,3.9
	c-2.1-0.3-3.7-2.6-3.1-4.7C126.6,78.1,127.7,77,129.1,76.7L129.1,76.7z M111.8,78.1c1.6-0.3,3.1,1.5,2.4,3c-0.5,1.6-2.8,2-3.9,0.7
	C109.2,80.6,110,78.3,111.8,78.1z M138.1,78.2c1.4-0.6,3.2,0.6,3.1,2.2c0,1.7-2.1,2.9-3.5,1.9C136.1,81.3,136.4,78.7,138.1,78.2z
	 M145.5,85.6c-0.6-1,0.4-2.4,1.6-2.2c0.6,0,1,0.4,1.3,0.8c0.1,0.6,0.2,1.3-0.3,1.8C147.4,86.9,145.9,86.6,145.5,85.6L145.5,85.6z
	 M103.3,83.6c1.1-0.7,2.6,0.4,2.4,1.6c-0.1,1.1-1.5,1.7-2.4,1.1C102.2,85.8,102.2,84.2,103.3,83.6L103.3,83.6z M124.5,86
	c1.4-0.6,3.2,0.6,3.1,2.2c0.1,1.7-2.1,2.9-3.5,1.9C122.6,89.1,122.8,86.5,124.5,86z M114.7,88.3c1.2-0.6,2.8,0.5,2.7,1.8
	c0,1.1-1,2-2.1,1.9c-0.9,0-1.5-0.8-1.8-1.6C113.5,89.5,113.8,88.6,114.7,88.3z M134.6,88.3c1.2-0.8,3,0.3,2.9,1.8
	c0,1.5-2,2.5-3.1,1.5C133.3,90.8,133.4,88.9,134.6,88.3L134.6,88.3z M138.1,96.9c-0.5-0.8,0.1-1.8,1-2c0.7,0.1,1.5,0.7,1.3,1.5
	C140.3,97.5,138.7,97.8,138.1,96.9z M110.6,96.1c0.2-0.7,0.8-1.3,1.5-1.2c1.1,0.1,1.5,1.8,0.5,2.3C111.7,97.9,110.7,97.1,110.6,96.1
	z M123.8,96.9c0.2-1,1.5-1.5,2.3-0.9c0.5,0.2,0.7,0.8,0.8,1.4l-0.2,0.8c-0.3,0.4-0.8,0.8-1.3,0.8C124.4,99.1,123.4,97.9,123.8,96.9
	L123.8,96.9z"/>
<circle class="st10" cx="125.5" cy="72.5" r="42.1"/>
<g>
	<g>
		<defs>
			<rect id="SVGID_4_" x="93.8" y="31" width="72.3" height="72.3"/>
		</defs>
		<clipPath id="SVGID_5_">
			<use xlink:href="#SVGID_4_"  style="overflow:visible;"/>
		</clipPath>
		<g class="st11">
			
				<image style="overflow:visible;enable-background:new    ;" width="512" height="512" xlink:href="../../logo - Copia.png"  transform="matrix(0.1279 0 0 0.1302 105 17.5535)">
			</image>
		</g>
	</g>
</g>
<path class="st12" d="M132,76.4c-0.5-1.1-1.5-2-3-2.5c-0.7-0.2-1.4-0.4-2.1-0.6c-0.7-1.5-2.1-2.6-4.1-2.8c-0.3-0.3-0.6-0.5-0.9-0.7
	c-2.2-1.4-5-1.7-7.2-3.2c-0.5-0.4-1.1-0.6-1.7-0.7c-0.8-2.1-1.8-4.1-2.7-6.1c1.1-0.9,1.7-2.2,1.8-3.8c0.1-1.1,0.1-2.1,0.2-3.2
	c0-0.2,0-0.5,0.1-0.7c0.5-0.6,0.7-1.4,0.8-2.3c0.2,0,0.4,0,0.6,0c1.4,0,2.4-0.5,3.2-1.2c0.5-0.3,0.9-0.7,1.3-1.2
	c0.6-0.1,1.1-0.3,1.7-0.7c1.1-0.7,2.1-1.5,3.2-2.2l0,0c0.3,0.4,0.7,0.8,1.1,1.2c0,0,0,0,0.1,0c0.1,0.1,0.2,0.2,0.4,0.2
	c0,0,0.1,0,0.1,0.1c0.1,0.1,0.2,0.1,0.4,0.2c0.1,0,0.1,0,0.2,0.1c0.1,0,0.2,0.1,0.4,0.1c0.1,0,0.1,0,0.2,0.1c0.1,0,0.3,0.1,0.4,0.1
	c0.1,0,0.1,0,0.2,0c0.2,0,0.4,0,0.6,0c0.3,0,0.7,0,1-0.1c0,0,0.1,0,0.1,0c0.3-0.1,0.6-0.1,0.8-0.2c0,0,0.1,0,0.1,0
	c0.2-0.1,0.5-0.2,0.7-0.4c0,0,0.1,0,0.1-0.1c0.2-0.1,0.4-0.3,0.6-0.5c0,0,0,0,0,0c0.8-0.8,1.2-1.9,1.4-3c0.1-0.1,0.1-0.1,0.2-0.2
	c1.6-1.9,2.2-4,1.7-6.5c-0.3-1.3-0.9-2.5-1.3-3.7c-0.7-1.9-2-3.3-4.2-3.6c-0.5-0.1-1.1,0-1.6,0c-1.2-0.5-2.4-0.8-3.6-1.1
	c-0.2,0-0.4-0.1-0.6-0.1c-1.6-0.8-3.6-0.8-5.2,0.1c-0.9,0.5-1.6,1.2-2.1,1.9c-0.6-0.7-1.4-1.2-2.4-1.5c-0.4-0.1-0.7-0.1-1.1-0.1
	c-0.8-0.2-1.7-0.2-2.4,0c-2.8,0.9-4,3.4-3.5,6.2c-0.2-1.2,0,0.1,0,0.3c0,0.2,0,0.4,0,0.6c0,0.1,0,0.1,0,0.2
	c-0.1,0.3-0.2,0.6-0.3,0.8c0,0,0,0,0,0.1c0,0.1-0.1,0.1-0.2,0.3c-0.9,1.7-0.8,3.6,0.1,5.1c-0.4,1.3-0.8,2.6-1.2,3.8
	c-0.2,0.5-0.2,1-0.2,1.5c-1.9,2.5-1.5,6.5-1.7,9.4c0,0.1,0,0.2,0,0.3c-2.1,1.5-2.4,4.2-1.4,6.5c0.9,2.1,1.8,4.3,2.6,6.5
	c0.2,0.6,0.4,1.3,0.7,2c-1.4,0.9-2.4,2.6-2.4,4.3c0,3,2.3,4.7,5,5c2.5,0.3,4.9-0.7,7.4-0.6c1.7,0.1,3.3,0.2,5,0.3
	c2.2,1.5,4.4,2.5,7.2,3.3c0.1,0,0.2,0,0.3,0.1c0.7,1.5,2.1,2.7,4.3,2.7C137,86.3,137.4,77.4,132,76.4z"/>
<path class="st12" d="M172.3,53.9c-1-4.9-2.3-9.8-3.8-14.5c-0.2-0.7-0.6-1.2-1-1.7c0.6-1.4,1.1-2.9,1.5-4.1c1.5-4.9-5.5-8.5-8.5-4.9
	c-1.5-0.6-3.3-0.4-4.8,0.4c-2.6-1.1-6.3,0-6.9,3.2c-0.3,1.6-0.7,2.8-0.7,4c-0.4,0.5-0.8,1.1-1.1,1.7c-0.6,1.2-0.9,2.6-1,3.9
	c-0.2,3.6,1.6,6.7,3.7,9.4c2.2,2.7,4.8,5.1,6.7,8.1c1.9,2.9,2.5,6.1,5,8.8c2,2.1,6.6,1.9,7.9-1c1.2-3,1.1-5.1,0.5-7.6
	C171.6,58.3,172.8,56.4,172.3,53.9z"/>
<path class="st12" d="M166.9,78.7c-1.2-5.6-9.1-4.1-9.7,0.8c-2.2-0.2-4.5-0.6-6.7-0.6c-4.2,0-8,0.8-11.9,2.5
	c-5.9,2.6-0.8,11.2,5,8.6c5.9-2.6,12.4-0.2,18.5-0.4C168.8,89.3,167.9,83.2,166.9,78.7z"/>
</svg>
